<svg width="269" height="263" viewBox="0 0 269 263" fill="none" xmlns="http://www.w3.org/2000/svg">
<path d="M121.996 77.05C124.115 72.956 127.716 62.0978 125.174 51.4176C122.631 40.7374 134.708 32.7272 141.064 30.0571C138.416 33.9732 133.755 43.7278 136.297 51.4176C139.475 61.0297 139.475 72.244 137.886 77.05L152.187 55.6896V80.7881C152.844 80.0661 153.596 79.2984 154.406 78.472C158.387 74.4085 163.758 68.9272 165.959 60.4957C168.502 51.5244 181.849 49.2815 188.205 49.2815C184.674 51.7736 177.082 59.4277 174.964 70.1079C172.845 80.7881 169.49 88.7983 168.078 91.4683L189.265 80.7881L179.731 102.149C183.792 98.2325 194.35 89.9731 204.096 88.2643C213.842 86.5554 222.281 91.4683 225.283 94.1384C219.81 93.7824 207.38 95.3132 201.447 104.285C195.515 113.256 188.382 115.499 185.557 115.499H210.452L189.265 129.383C193.326 130.273 203.248 131.519 210.452 129.383C217.655 127.247 227.578 134.189 231.639 137.927C226.166 137.749 213.842 138.248 208.333 141.665C202.825 145.083 193.326 144.157 189.265 143.267L208.333 158.754L184.498 159.822C187.323 163.204 195.303 170.181 204.625 171.036C212.041 171.716 216.985 185.988 217.338 192.93C214.16 188.836 205.685 181.716 197.74 180.648C189.759 179.575 179.201 175.308 174.964 172.638L189.265 196.668L163.84 186.522C163.487 189.37 164.158 196.455 169.667 202.008C176.87 209.698 175.493 224.081 173.904 230.311C172.315 225.505 167.866 215.038 162.781 211.621C157.696 208.203 151.481 197.736 149.009 192.93L146.361 223.369L131.53 195.066C130.471 201.118 128.988 214.825 131.53 221.233C134.073 227.641 123.408 236.719 117.758 240.457C119.877 235.829 123.373 224.864 120.407 218.029C117.441 211.193 116.699 199.872 116.699 195.066L101.868 218.563L101.338 190.794C97.4542 195.244 89.4737 206.067 88.6262 213.757C87.7787 221.446 75.914 223.369 70.0875 223.369C73.7953 219.809 80.9989 210.873 80.1514 203.61C79.3039 196.348 85.4481 185.276 88.6262 180.648L65.8501 191.862L76.4437 168.366C72.2063 170.502 62.1425 176.162 55.7864 181.716C49.4303 187.27 36.5414 182.25 30.8915 179.046C36.0117 177.8 47.6292 173.706 53.1379 167.298C58.6465 160.89 66.7329 156.084 70.0875 154.482L45.7224 152.345L65.8501 137.393C59.6705 138.817 45.4046 140.811 37.7773 137.393C30.15 133.976 24.3588 126.001 22.4166 122.441C27.0072 124.577 37.8831 128.315 44.663 126.179C51.4429 124.043 60.5533 122.797 64.2611 122.441L47.3115 106.955L70.0875 108.023C69.2048 105.175 65.0027 98.7309 55.2566 95.7404C45.5106 92.75 42.0147 79.8981 41.485 73.846C44.6631 78.1181 53.3498 86.769 62.6721 87.1962C71.9944 87.6234 78.9155 93.4264 81.2107 96.2744L70.6172 70.6419L93.3933 85.0602C93.7465 80.9661 92.8636 70.9623 86.5075 63.6998C80.1514 56.4373 83.8591 41.8054 86.5075 35.3973C86.684 40.7374 88.5203 52.4856 94.4527 56.7577C100.385 61.0297 105.752 73.846 107.695 79.7201L111.402 53.5536L121.996 77.05Z" fill="white"/>
</svg>
